<svg xmlns="http://www.w3.org/2000/svg" xmlns:xlink="http://www.w3.org/1999/xlink" viewBox="0,0,256,256" width="24px" height="24px"><g fill="#1C1E21" fill-rule="nonzero" stroke="none" stroke-width="1" stroke-linecap="butt" stroke-linejoin="miter" stroke-miterlimit="10" stroke-dasharray="" stroke-dashoffset="0" font-family="none" font-weight="none" font-size="none" text-anchor="none" style="mix-blend-mode: normal"><g transform="scale(10.66667,10.66667)"><path d="M9,7c-0.641,0 -4.361,0 -5,0c-1.105,0 -2,0.895 -2,2c0,1.105 0.895,2 2,2c0.639,0 4.359,0 5,0c1.105,0 2,-0.895 2,-2c0,-1.105 -0.895,-2 -2,-2zM11,4c0,0.598 0,2 0,2c0,0 -1.493,0 -2,0c-1.105,0 -2,-0.895 -2,-2c0,-1.105 0.895,-2 2,-2c1.105,0 2,0.895 2,2zM7,14c0,0.641 0,4.361 0,5c0,1.105 0.895,2 2,2c1.105,0 2,-0.895 2,-2c0,-0.639 0,-4.359 0,-5c0,-1.105 -0.895,-2 -2,-2c-1.105,0 -2,0.895 -2,2zM4,12c0.598,0 2,0 2,0c0,0 0,1.493 0,2c0,1.105 -0.895,2 -2,2c-1.105,0 -2,-0.895 -2,-2c0,-1.105 0.895,-2 2,-2zM14,16c0.641,0 4.361,0 5,0c1.105,0 2,-0.895 2,-2c0,-1.105 -0.895,-2 -2,-2c-0.639,0 -4.359,0 -5,0c-1.105,0 -2,0.895 -2,2c0,1.104 0.895,2 2,2zM12,19c0,-0.598 0,-2 0,-2c0,0 1.493,0 2,0c1.105,0 2,0.895 2,2c0,1.105 -0.895,2 -2,2c-1.105,0 -2,-0.896 -2,-2zM16,9c0,-0.641 0,-4.361 0,-5c0,-1.105 -0.895,-2 -2,-2c-1.105,0 -2,0.895 -2,2c0,0.639 0,4.359 0,5c0,1.105 0.895,2 2,2c1.104,0 2,-0.896 2,-2zM19,11c-0.598,0 -2,0 -2,0c0,0 0,-1.493 0,-2c0,-1.105 0.895,-2 2,-2c1.105,0 2,0.895 2,2c0,1.105 -0.896,2 -2,2z"></path></g></g></svg>